<?xml version="1.0" encoding="utf-8"?>
<!-- Generator: Adobe Illustrator 23.0.4, SVG Export Plug-In . SVG Version: 6.00 Build 0)  -->
<svg version="1.1" id="Layer_1" xmlns="http://www.w3.org/2000/svg" xmlns:xlink="http://www.w3.org/1999/xlink" x="0px" y="0px"
	 viewBox="0 0 512 512" style="enable-background:new 0 0 512 512;" xml:space="preserve">
<style type="text/css">
	.st0{fill:#FFFFFF;}
</style>
<g>
	<path class="st0" d="M504.5,248.5c-4.1,0-7.5,3.4-7.5,7.5c0,64.4-25.1,124.9-70.6,170.4s-106,70.6-170.4,70.6
		s-124.9-25.1-170.4-70.6C40.1,380.8,15,320.3,15,256c0-64.4,25.1-124.9,70.6-170.4S191.6,15,256,15c58.6,0,115.1,21.3,159,59.9
		c43.6,38.3,71.9,90.8,79.7,147.9c0.6,4.1,4.4,7,8.4,6.4c4.1-0.6,7-4.3,6.4-8.5c-8.3-60.7-38.4-116.5-84.7-157.2
		C378.2,22.6,318.2,0,256,0C187.6,0,123.3,26.6,75,75S0,187.6,0,256c0,68.4,26.6,132.6,75,181s112.6,75,181,75s132.7-26.6,181-75
		s75-112.6,75-181C512,251.8,508.6,248.5,504.5,248.5z"/>
	<path class="st0" d="M299.3,351.1c-20,12.6-42.1,20.8-65.5,24.2c-4.1,0.6-6.9,4.4-6.3,8.5s4.4,6.9,8.5,6.3
		c25.5-3.8,49.5-12.6,71.3-26.4c4.8-3,8.2-7.6,9.7-12.8c1.6,0.1,3.1,0.2,4.7,0.3c2.4,0.1,4.7,0.2,7.1,0.2c26.5,0,52.4-7.4,74.7-21.5
		c5.6-3.5,8.9-9.6,8.9-16.2c0-22.3-8.7-43.3-24.5-59.1c-8.6-8.6-18.8-15.1-30-19.3c11.7-8.8,19.2-22.8,19.2-38.6
		c0-26.7-21.7-48.4-48.4-48.4s-48.4,21.7-48.4,48.4c0,15.8,7.6,29.8,19.3,38.6c-10.9,4.1-21,10.4-29.4,18.6
		c-8.7-5.9-18.1-10.6-28.1-13.8c17.2-11.1,28.7-30.4,28.7-52.3c0-34.3-27.9-62.1-62.1-62.1c-34.3,0-62.1,27.9-62.1,62.1
		c0,22,11.5,41.3,28.7,52.3c-43.9,14.1-75.8,55.4-75.8,104c0,8,4,15.2,10.7,19.5c26.2,16.6,56.5,26.3,87.6,28.1c0.1,0,0.3,0,0.4,0
		c3.9,0,7.2-3.1,7.5-7.1c0.2-4.1-2.9-7.7-7.1-7.9c-28.5-1.7-56.3-10.6-80.4-25.8c-2.3-1.5-3.7-4-3.7-6.8c0-51.9,42.3-94.2,94.2-94.2
		c25.2,0,48.8,9.8,66.6,27.6c17.8,17.8,27.6,41.4,27.6,66.6C303,347.1,301.6,349.6,299.3,351.1C279.3,363.7,301.6,349.6,299.3,351.1
		z M161.7,188c0-26,21.1-47.1,47.1-47.1c26,0,47.1,21.1,47.1,47.1s-21.1,47.1-47.1,47.1C182.8,235.1,161.7,214,161.7,188z
		 M328.8,163.5c18.4,0,33.4,15,33.4,33.4c0,18.4-14.9,33.3-33.3,33.4c0,0,0,0-0.1,0c0,0-0.1,0-0.1,0c-18.4,0-33.3-15-33.3-33.4
		C295.4,178.4,310.4,163.5,328.8,163.5z M320.7,245.7c2.7-0.3,5.4-0.5,8.1-0.5c18.3,0,35.5,7.1,48.4,20.1
		c12.9,12.9,20.1,30.1,20.1,48.5c0,1.4-0.7,2.7-1.9,3.5c-19.9,12.6-43,19.2-66.7,19.2c-2.1,0-4.2,0-6.3-0.2
		c-1.6-0.1-3.2-0.2-4.8-0.3c-2-26-13-50.2-31.7-68.8c-1.2-1.2-2.5-2.5-3.8-3.7C292.8,253.6,306.4,247.3,320.7,245.7z"/>
</g>
</svg>
